<mxfile host="app.diagrams.net" modified="2024-08-16T07:58:28.527Z" agent="Mozilla/5.0 (Windows NT 10.0; Win64; x64) AppleWebKit/537.36 (KHTML, like Gecko) Chrome/127.0.0.0 Safari/537.36" version="24.2.1" etag="OXwvH1rrd35ed40c_Bav" type="github">
  <diagram name="Page-1" id="7-6Y3VFbGJrkZjuIeSL1">
    <mxGraphModel>
      <root>
        <mxCell id="0" />
        <mxCell id="1" parent="0" />
      </root>
    </mxGraphModel>
  </diagram>
</mxfile>
